<?xml version="1.0" standalone="no"?><!DOCTYPE svg PUBLIC "-//W3C//DTD SVG 1.1//EN" "http://www.w3.org/Graphics/SVG/1.1/DTD/svg11.dtd"><svg t="1605848269536" class="icon" viewBox="0 0 1024 1024" version="1.1" xmlns="http://www.w3.org/2000/svg" p-id="3354" xmlns:xlink="http://www.w3.org/1999/xlink" width="200" height="200"><defs><style type="text/css"></style></defs><path d="M935.738094 893.86386a39.903994 39.903994 0 0 0-47.175993-31.031995 39.999994 39.999994 0 0 0-30.967995 47.303993 28.639996 28.639996 0 0 1-5.871999 23.943996c-3.008 3.703999-9.655998 9.919998-20.359997 9.919999H550.914154v-115.287982l116.071982-164.527975a352.695945 352.695945 0 0 1 111.439982 86.007987 39.847994 39.847994 0 0 0 56.295992 4.039999 40.071994 40.071994 0 0 0 4.031999-56.423991 432.479932 432.479932 0 0 0-180.063972-123.919981c49.975992-42.223993 81.783987-105.391984 81.783987-175.887972 0-24.183996-3.743999-47.887993-10.983998-70.455989a40.039994 40.039994 0 0 0 10.983998-27.543996c0-176.559972-20.127997-265.359959-20.991996-269.063958A39.919994 39.919994 0 0 0 680.618134 0H341.410187a39.927994 39.927994 0 0 0-38.959994 31.319995c-0.848 3.847999-20.903997 96.271985-20.903997 268.679958 0 10.351998 4.007999 20.199997 11.007998 27.575996a230.671964 230.671964 0 0 0-11.007998 70.423989c0 70.567989 31.887995 133.807979 81.959987 176.031972a432.527932 432.527932 0 0 0-127.95998 73.119989C159.306215 710.199889 106.290223 798.135875 86.282227 894.75186a107.463983 107.463983 0 0 0 21.807996 89.879986A105.935983 105.935983 0 0 0 190.66621 1023.99984h640.6959c31.935995 0 61.92799-14.375998 82.271987-39.431994a108.487983 108.487983 0 0 0 22.103997-90.703986zM511.01816 746.719883l-77.591988-109.983982a348.855945 348.855945 0 0 1 77.583988-8.735999c26.383996 0 52.407992 2.96 77.663988 8.623999L511.01016 746.719883zM375.074181 79.999988h272.007958c4.663999 31.839995 10.975998 88.143986 12.959998 168.719973-51.631992-11.071998-102.687984-16.599997-153.023976-16.599997-49.095992 0-97.511985 5.271999-144.999978 15.799997 2.048-79.039988 8.399999-135.703979 13.055998-167.919973z m-13.719997 317.99995c0-25.351996 6.327999-50.039992 18.359997-72.031989 84.623987-18.663997 172.751973-18.383997 263.063959 0.88a149.431977 149.431977 0 0 1 17.871997 71.151989c0 82.711987-67.12799 149.999977-149.647977 149.999976S361.370184 480.711925 361.370184 397.999938z m-191.359971 536.135916a27.319996 27.319996 0 0 1-5.567999-23.127996c22.695996-109.615983 95.359985-199.135969 190.87997-246.447962l115.791982 164.151975V943.999853H190.66621a26.279996 26.279996 0 0 1-20.671997-9.863999zM738.474125 807.999874a39.951994 39.951994 0 0 1 39.903993 39.999994c0 22.095997-17.863997 39.999994-39.903993 39.999993h-63.85599a39.951994 39.951994 0 0 1-39.903994-39.999993c0-22.095997 17.863997-39.999994 39.903994-39.999994h63.85599z" fill="#4A90E2" p-id="3355"></path></svg>